<svg xmlns="http://www.w3.org/2000/svg" xmlns:xlink="http://www.w3.org/1999/xlink" width="4000"
    zoomAndPan="magnify" viewBox="0 0 3000 2999.999989" height="4000"
    preserveAspectRatio="xMidYMid meet" version="1.2">
    <defs>
        <clipPath id="47c9534733">
            <path d="M 704 652 L 2197 652 L 2197 1641.75 L 704 1641.75 Z M 704 652 " />
        </clipPath>
        <clipPath id="7e81540516">
            <path d="M 1031 1669 L 1219 1669 L 1219 1916.5 L 1031 1916.5 Z M 1031 1669 " />
        </clipPath>
        <clipPath id="62cb19f329">
            <path d="M 913 1953.3125 L 2057 1953.3125 L 2057 2236 L 913 2236 Z M 913 1953.3125 " />
        </clipPath>
    </defs>
    <g id="01b4ff6e93">
        <g clip-rule="nonzero" clip-path="url(#47c9534733)">
            <path style=" stroke:none;fill-rule:evenodd;fill:#000000;fill-opacity:1;"
                d="M 1381.210938 655.203125 C 1301.507812 666.578125 1225.550781 698.816406 1166.429688 746.371094 C 1145.285156 763.378906 1111.851562 797.214844 1096.648438 816.988281 C 1049.753906 877.984375 1021.300781 950.851562 1011.808594 1034.273438 C 1008.761719 1061.035156 1010.457031 1120.496094 1015.113281 1150.085938 C 1028.667969 1236.308594 1069.257812 1315.917969 1132.460938 1380.25 C 1198.816406 1447.789062 1279.109375 1488.484375 1375.316406 1503.335938 C 1407.910156 1508.367188 1474.644531 1508.328125 1502.691406 1503.265625 C 1540.898438 1496.363281 1575.777344 1486.394531 1575.777344 1482.375 C 1575.777344 1481.210938 1572.394531 1472.390625 1568.261719 1462.765625 C 1558.367188 1439.726562 1546.6875 1404.820312 1538.082031 1372.550781 C 1534.253906 1358.195312 1530.878906 1346.105469 1530.582031 1345.679688 C 1530.285156 1345.257812 1518.953125 1347.113281 1505.40625 1349.796875 C 1473.476562 1356.125 1415.90625 1356.730469 1387.464844 1351.042969 C 1300.203125 1333.574219 1226.652344 1278.457031 1188.714844 1202.089844 C 1169.371094 1163.15625 1161.527344 1127.039062 1161.566406 1077.082031 C 1161.585938 1050.703125 1162.550781 1039.191406 1166.148438 1022.394531 C 1177.597656 968.945312 1198.492188 928.21875 1233.917969 890.289062 C 1298.269531 821.394531 1397.453125 791.097656 1494.148438 810.804688 C 1611.03125 834.625 1694.191406 921.53125 1712.898438 1039.417969 C 1715.34375 1054.835938 1715.921875 1068.894531 1715.125 1093.710938 C 1713.910156 1131.75 1709.175781 1154.210938 1695.84375 1185.25 L 1688.144531 1203.175781 L 1693.714844 1210.480469 C 1696.777344 1214.496094 1699.921875 1218.074219 1700.703125 1218.429688 C 1703.382812 1219.648438 1721.316406 1242.066406 1730.453125 1255.617188 C 1735.484375 1263.082031 1747.613281 1285.078125 1757.398438 1304.5 C 1767.1875 1323.921875 1776.089844 1339.898438 1777.1875 1340 C 1780.445312 1340.300781 1809.757812 1295.804688 1822.632812 1271.011719 C 1857.835938 1203.234375 1871.863281 1136.488281 1867.78125 1056.199219 C 1862.308594 948.738281 1818.46875 850.886719 1741.605469 774.585938 C 1680.1875 713.625 1595.804688 671.710938 1505.015625 657.074219 C 1477.078125 652.566406 1407.09375 651.511719 1381.210938 655.203125 M 1365.5 1117.640625 C 1346.472656 1118.414062 1334.9375 1119.753906 1333.304688 1121.382812 C 1331.3125 1123.378906 1331.402344 1124.117188 1333.726562 1124.8125 C 1389.195312 1141.445312 1438.949219 1171.972656 1477.144531 1212.792969 C 1518.269531 1256.75 1535.386719 1291.996094 1565.371094 1394.476562 C 1587.0625 1468.617188 1614.488281 1519.570312 1653.757812 1558.679688 L 1668.144531 1573.011719 L 1815.046875 1573.011719 C 1944.769531 1573.011719 1961.808594 1572.648438 1960.75 1569.878906 C 1960.085938 1568.15625 1958.585938 1566.746094 1957.414062 1566.746094 C 1956.242188 1566.746094 1946.617188 1563.046875 1936.027344 1558.523438 C 1850.132812 1521.824219 1790.6875 1457.449219 1758.511719 1366.285156 C 1748.089844 1336.753906 1725.203125 1289.984375 1710.199219 1267.558594 C 1662.273438 1195.933594 1580.496094 1142.035156 1492.59375 1124.136719 C 1473.617188 1120.273438 1418.589844 1115.371094 1402.460938 1116.109375 C 1398.441406 1116.292969 1381.808594 1116.980469 1365.5 1117.640625 M 1545.042969 1209.613281 C 1558.546875 1222.257812 1585.320312 1255 1593.527344 1268.90625 C 1595.480469 1272.214844 1596.320312 1272.191406 1606.582031 1268.546875 C 1612.617188 1266.40625 1618.101562 1264.101562 1618.773438 1263.425781 C 1620.816406 1261.386719 1604.488281 1240.855469 1587.40625 1223.996094 C 1568.621094 1205.449219 1555.214844 1197.476562 1539.832031 1195.683594 L 1528.792969 1194.398438 Z M 1633.722656 1319.734375 C 1627.117188 1321.46875 1621.714844 1323.753906 1621.714844 1324.8125 C 1621.714844 1325.871094 1624.183594 1332.582031 1627.199219 1339.726562 C 1630.21875 1346.871094 1637.367188 1364.460938 1643.085938 1378.816406 C 1648.808594 1393.171875 1654.09375 1405.550781 1654.828125 1406.324219 C 1656.886719 1408.484375 1684.613281 1399.140625 1683.503906 1396.660156 C 1682.96875 1395.457031 1674.789062 1376.859375 1665.324219 1355.324219 C 1655.863281 1333.792969 1647.582031 1316.265625 1646.925781 1316.378906 C 1646.269531 1316.492188 1640.328125 1318.003906 1633.722656 1319.734375 M 1694.277344 1457.734375 C 1687.671875 1459.570312 1682.269531 1462.089844 1682.269531 1463.332031 C 1682.269531 1466.957031 1709.09375 1499.890625 1722.863281 1513.175781 C 1729.824219 1519.890625 1739.511719 1527.730469 1744.390625 1530.601562 C 1752.074219 1535.121094 1754.726562 1535.621094 1764.226562 1534.34375 C 1780.730469 1532.125 1781.398438 1531.054688 1771.347656 1522.855469 C 1758.367188 1512.265625 1729.28125 1479.929688 1720.300781 1466.105469 C 1716.039062 1459.539062 1711.140625 1454.21875 1709.417969 1454.28125 C 1707.695312 1454.339844 1700.882812 1455.894531 1694.277344 1457.734375 M 801.078125 1715.765625 C 773.414062 1724.089844 751.933594 1738.273438 734.71875 1759.582031 C 716.460938 1782.179688 708.292969 1801.875 705.117188 1830.945312 C 693.628906 1936.238281 790.867188 2011.566406 889.28125 1973.613281 L 905.839844 1967.230469 L 911.519531 1972.667969 C 917.070312 1977.988281 917.84375 1978.109375 945.601562 1978.109375 C 973.992188 1978.109375 974.003906 1978.109375 972.886719 1973.410156 C 972.273438 1970.828125 966.433594 1963.074219 959.910156 1956.183594 C 940.730469 1935.933594 941.261719 1938.28125 952.46875 1923.378906 C 972.292969 1897.003906 979.203125 1876.910156 979.242188 1845.511719 C 979.308594 1793.132812 953.667969 1750.246094 907.558594 1725.621094 C 878.699219 1710.207031 833.460938 1706.019531 801.078125 1715.765625 M 1082.332031 1716.519531 C 1080.265625 1720.011719 1035.308594 1835.722656 1018.828125 1879.96875 C 1016.046875 1887.433594 1006.792969 1911.46875 998.257812 1933.375 C 989.726562 1955.285156 982.746094 1974.238281 982.746094 1975.488281 C 982.746094 1979.042969 984.992188 1979.222656 1015.59375 1978.109375 L 1044.347656 1977.066406 L 1053.933594 1951.46875 C 1059.207031 1937.390625 1063.953125 1925.441406 1064.480469 1924.914062 C 1065.007812 1924.390625 1087.941406 1923.855469 1115.449219 1923.726562 L 1165.457031 1923.492188 L 1172.238281 1941.925781 C 1175.964844 1952.066406 1180.507812 1964.355469 1182.328125 1969.234375 L 1185.640625 1978.109375 L 1215.746094 1978.109375 C 1241.691406 1978.109375 1245.851562 1977.65625 1245.851562 1974.835938 C 1245.851562 1973.035156 1239.652344 1955.417969 1232.074219 1935.683594 C 1222.308594 1910.179688 1212.621094 1884.648438 1203.011719 1859.085938 C 1194.605469 1836.691406 1178.78125 1795.347656 1167.855469 1767.207031 L 1147.984375 1716.050781 L 1115.636719 1715.476562 C 1097.84375 1715.160156 1082.859375 1715.628906 1082.332031 1716.519531 M 1274.390625 1716.398438 C 1273.625 1717.164062 1272.996094 1776.359375 1272.996094 1847.949219 L 1272.996094 1978.109375 L 1333.554688 1978.109375 L 1333.554688 1892.496094 L 1352.867188 1892.59375 L 1372.183594 1892.691406 L 1399.023438 1935.402344 L 1425.867188 1978.109375 L 1460.101562 1978.109375 C 1481.648438 1978.109375 1494.339844 1977.332031 1494.339844 1976.011719 C 1494.339844 1974.160156 1484.425781 1959.871094 1442.644531 1901.511719 L 1431.90625 1886.511719 L 1442.761719 1880.375 C 1457.011719 1872.324219 1472.390625 1855.625 1479.261719 1840.753906 C 1484.238281 1829.984375 1484.789062 1826.339844 1484.863281 1803.75 C 1484.9375 1780.84375 1484.460938 1777.667969 1479.347656 1766.753906 C 1468.289062 1743.160156 1445.9375 1725.5625 1417.820312 1718.3125 C 1407.460938 1715.640625 1392.546875 1715.003906 1340.386719 1715.003906 C 1304.855469 1715.003906 1275.152344 1715.632812 1274.390625 1716.398438 M 1527.75 1846.535156 L 1527.75 1978.109375 L 1715.683594 1978.109375 L 1715.683594 1925.90625 L 1586.21875 1925.90625 L 1586.21875 1871.617188 L 1705.242188 1871.617188 L 1705.242188 1819.410156 L 1586.21875 1819.410156 L 1586.21875 1767.269531 L 1650.425781 1766.714844 L 1714.636719 1766.164062 L 1714.636719 1716.050781 L 1621.195312 1715.507812 L 1527.75 1714.960938 Z M 1757.445312 1846.558594 L 1757.445312 1978.109375 L 1943.03125 1978.109375 L 1944.332031 1969.234375 C 1945.046875 1964.355469 1945.339844 1952.84375 1944.980469 1943.65625 L 1944.332031 1926.949219 L 1880.121094 1926.398438 L 1815.914062 1925.847656 L 1815.914062 1871.683594 L 1873.527344 1871.125 L 1931.140625 1870.570312 L 1931.695312 1847.601562 C 1931.996094 1834.96875 1931.8125 1823.457031 1931.28125 1822.023438 C 1930.539062 1820.023438 1916.964844 1819.410156 1873.113281 1819.410156 L 1815.914062 1819.410156 L 1815.914062 1767.207031 L 1941.199219 1767.207031 L 1941.199219 1715.003906 L 1757.445312 1715.003906 Z M 1985.011719 1733.152344 C 1984.992188 1743.269531 1984.753906 1802.523438 1984.488281 1864.828125 L 1984.003906 1978.109375 L 2057.234375 1978.109375 C 2118.46875 1978.109375 2132.320312 1977.558594 2141.804688 1974.75 C 2165.675781 1967.667969 2181.953125 1955.457031 2191.417969 1937.523438 C 2196.4375 1928.007812 2196.996094 1924.761719 2196.996094 1905.027344 C 2196.996094 1886.523438 2196.289062 1881.78125 2192.46875 1874.640625 C 2186.757812 1863.980469 2172.863281 1849.96875 2164.601562 1846.546875 L 2158.28125 1843.925781 L 2166.484375 1837.894531 C 2184.765625 1824.449219 2194.585938 1798.097656 2189.835938 1775.234375 C 2184.816406 1751.078125 2167.15625 1730.953125 2142.1875 1720.925781 C 2130.578125 1716.265625 2127.753906 1716.082031 2057.613281 1715.429688 L 1985.050781 1714.757812 Z M 822.074219 1768.347656 C 782.019531 1777.097656 756.640625 1820.761719 765.488281 1865.714844 C 771.714844 1897.378906 791.472656 1919.195312 820.851562 1926.847656 C 836.542969 1930.933594 845.503906 1930.929688 859.332031 1926.820312 L 870.316406 1923.558594 L 853.355469 1905.894531 L 836.398438 1888.230469 L 848.375 1874.839844 C 854.960938 1867.472656 862.574219 1860.261719 865.292969 1858.804688 C 869.800781 1856.394531 870.816406 1856.804688 876.898438 1863.492188 C 908.015625 1897.71875 905.421875 1895.457031 908.6875 1891.203125 C 914.023438 1884.25 920.101562 1861.144531 920.078125 1847.90625 C 919.972656 1793.507812 874.792969 1756.835938 822.074219 1768.347656 M 1333.554688 1803.746094 L 1333.554688 1840.722656 L 1367.484375 1839.925781 C 1405.652344 1839.03125 1413.066406 1836.925781 1422.75 1824.226562 C 1430.316406 1814.308594 1430.652344 1796.78125 1423.5 1785.214844 C 1415.082031 1771.589844 1405.234375 1768.550781 1366.441406 1767.585938 L 1333.554688 1766.769531 Z M 2043.519531 1793.265625 L 2043.519531 1819.675781 L 2080.960938 1819.019531 C 2115.125 1818.425781 2118.914062 1817.984375 2124.289062 1813.992188 C 2138.660156 1803.316406 2136.933594 1779.917969 2121.203125 1772.101562 C 2114.839844 1768.941406 2107.28125 1768.136719 2078.496094 1767.558594 L 2043.519531 1766.855469 Z M 1112.210938 1785.847656 C 1112.210938 1787.375 1105.632812 1806.96875 1097.59375 1829.394531 C 1089.554688 1851.820312 1082.976562 1870.492188 1082.976562 1870.890625 C 1082.976562 1872.386719 1145.625 1871.546875 1145.667969 1870.050781 C 1145.746094 1867.40625 1115.800781 1787.175781 1113.949219 1785.0625 C 1112.898438 1783.867188 1112.210938 1784.175781 1112.210938 1785.847656 M 2043.519531 1898.925781 L 2043.519531 1926.234375 L 2082.671875 1925.546875 C 2115.695312 1924.96875 2122.910156 1924.269531 2128.773438 1921.070312 C 2142.335938 1913.671875 2144.953125 1895.035156 2134.222656 1882.28125 C 2127.101562 1873.820312 2115.019531 1871.617188 2075.78125 1871.617188 L 2043.519531 1871.617188 Z M 2043.519531 1898.925781 " />
        </g>
        <g style="fill:#00cdbc;fill-opacity:1;">
            <g transform="translate(742.585052, 1893.183878)">
                <path style="stroke:none"
                    d="M 123.34375 -220.796875 C 138.476562 -220.796875 152.851562 -218.398438 166.46875 -213.609375 C 179.882812 -208.628906 191.671875 -201.347656 201.828125 -191.765625 C 211.984375 -182.179688 219.9375 -170.296875 225.6875 -156.109375 C 231.4375 -141.734375 234.3125 -125.632812 234.3125 -107.8125 C 234.3125 -93.625 232.488281 -80.59375 228.84375 -68.71875 C 225.207031 -56.632812 220.128906 -46.09375 213.609375 -37.09375 C 206.898438 -28.082031 199.039062 -20.601562 190.03125 -14.65625 C 180.832031 -8.53125 170.960938 -3.929688 160.421875 -0.859375 L 165.59375 8.34375 C 167.894531 12.75 170.769531 17.25 174.21875 21.84375 C 177.476562 26.445312 180.453125 29.800781 183.140625 31.90625 C 185.628906 34.019531 187.640625 35.171875 189.171875 35.359375 L 146.625 35.359375 C 142.21875 35.359375 135.796875 27.3125 127.359375 11.21875 L 123.34375 5.171875 C 108.195312 5.171875 93.914062 2.679688 80.5 -2.296875 C 66.894531 -7.085938 55.007812 -14.273438 44.84375 -23.859375 C 34.6875 -33.441406 26.734375 -45.421875 20.984375 -59.796875 C 15.234375 -73.984375 12.359375 -89.988281 12.359375 -107.8125 C 12.359375 -125.632812 15.234375 -141.734375 20.984375 -156.109375 C 26.734375 -170.296875 34.6875 -182.179688 44.84375 -191.765625 C 55.007812 -201.347656 66.894531 -208.628906 80.5 -213.609375 C 93.914062 -218.398438 108.195312 -220.796875 123.34375 -220.796875 Z M 66.40625 -107.8125 C 66.40625 -96.125 67.84375 -85.488281 70.71875 -75.90625 C 73.40625 -66.320312 77.335938 -58.175781 82.515625 -51.46875 C 87.691406 -44.757812 93.820312 -39.675781 100.90625 -36.21875 C 107.8125 -32.769531 115.289062 -31.046875 123.34375 -31.046875 C 131.382812 -31.046875 138.859375 -32.769531 145.765625 -36.21875 C 152.660156 -39.675781 158.695312 -44.757812 163.875 -51.46875 C 169.050781 -58.175781 173.078125 -66.320312 175.953125 -75.90625 C 178.628906 -85.488281 179.96875 -96.125 179.96875 -107.8125 C 179.96875 -119.5 178.628906 -130.234375 175.953125 -140.015625 C 173.078125 -149.597656 169.050781 -157.742188 163.875 -164.453125 C 158.695312 -170.960938 152.660156 -176.039062 145.765625 -179.6875 C 138.859375 -183.132812 131.382812 -184.859375 123.34375 -184.859375 C 115.289062 -184.859375 108.195312 -183.328125 102.0625 -180.265625 C 95.925781 -177.191406 90.460938 -173.070312 85.671875 -167.90625 C 80.691406 -162.726562 76.285156 -155.0625 72.453125 -144.90625 C 68.421875 -134.738281 66.40625 -122.375 66.40625 -107.8125 Z M 66.40625 -107.8125 " />
            </g>
        </g>
        <g style="fill:#00cdbc;fill-opacity:1;">
            <g transform="translate(1033.831136, 1893.183878)">
                <path style="stroke:none" d="" />
            </g>
        </g>
        <g style="fill:#00cdbc;fill-opacity:1;">
            <g transform="translate(1154.296287, 1893.183878)">
                <path style="stroke:none" d="" />
            </g>
        </g>
        <g style="fill:#00cdbc;fill-opacity:1;">
            <g transform="translate(1274.768625, 1893.183878)">
                <path style="stroke:none"
                    d="M 107.8125 -215.625 C 126.59375 -215.625 142.210938 -212.65625 154.671875 -206.71875 C 167.128906 -200.582031 176.617188 -192.144531 183.140625 -181.40625 C 189.460938 -170.488281 192.625 -157.070312 192.625 -141.15625 C 192.625 -123.71875 188.695312 -109.34375 180.84375 -98.03125 C 172.976562 -86.726562 162.242188 -78.679688 148.640625 -73.890625 L 182.84375 -24.4375 C 186.101562 -19.457031 189.9375 -14.757812 194.34375 -10.34375 C 198.5625 -5.75 202.78125 -2.300781 207 0 L 150.359375 0 C 141.929688 -2.300781 134.171875 -8.914062 127.078125 -19.84375 L 94.296875 -66.984375 L 71.59375 -66.984375 L 71.59375 -34.5 C 71.59375 -31.4375 71.972656 -27.507812 72.734375 -22.71875 C 73.304688 -17.925781 74.457031 -13.226562 76.1875 -8.625 C 77.914062 -3.832031 79.738281 -0.957031 81.65625 0 L 8.34375 0 C 9.675781 -0.570312 11.113281 -2.394531 12.65625 -5.46875 C 14.1875 -8.53125 15.523438 -12.9375 16.671875 -18.6875 C 17.828125 -24.4375 18.40625 -29.707031 18.40625 -34.5 L 18.40625 -181.125 C 18.40625 -184.1875 18.113281 -188.113281 17.53125 -192.90625 C 16.769531 -197.695312 15.523438 -202.488281 13.796875 -207.28125 C 12.078125 -211.882812 10.257812 -214.664062 8.34375 -215.625 Z M 71.59375 -102.921875 L 103.21875 -102.921875 C 107.425781 -102.921875 112.3125 -104.070312 117.875 -106.375 C 123.4375 -108.476562 128.226562 -112.597656 132.25 -118.734375 C 136.269531 -124.679688 138.28125 -132.15625 138.28125 -141.15625 C 138.28125 -147.289062 137.132812 -153.332031 134.84375 -159.28125 C 132.34375 -165.21875 128.125 -170.101562 122.1875 -173.9375 C 116.25 -177.769531 109.925781 -179.6875 103.21875 -179.6875 L 71.59375 -179.6875 Z M 71.59375 -102.921875 " />
            </g>
        </g>
        <g style="fill:#00cdbc;fill-opacity:1;">
            <g transform="translate(1531.223456, 1893.183878)">
                <path style="stroke:none"
                    d="M 162.15625 -169.625 C 161.570312 -170.96875 159.75 -172.40625 156.6875 -173.9375 C 153.625 -175.46875 149.21875 -176.8125 143.46875 -177.96875 C 137.71875 -179.113281 132.445312 -179.6875 127.65625 -179.6875 L 71.59375 -179.6875 L 71.59375 -126.21875 L 114.421875 -126.21875 C 117.492188 -126.21875 121.425781 -126.597656 126.21875 -127.359375 C 131.007812 -127.929688 135.800781 -129.082031 140.59375 -130.8125 C 145.1875 -132.539062 147.960938 -134.363281 148.921875 -136.28125 L 148.921875 -80.21875 C 148.347656 -81.550781 146.53125 -82.988281 143.46875 -84.53125 C 140.394531 -86.0625 135.984375 -87.398438 130.234375 -88.546875 C 124.484375 -89.703125 119.210938 -90.28125 114.421875 -90.28125 L 71.59375 -90.28125 L 71.59375 -35.9375 L 138 -35.9375 C 141.0625 -35.9375 144.988281 -36.320312 149.78125 -37.09375 C 154.570312 -37.664062 159.363281 -38.8125 164.15625 -40.53125 C 168.757812 -42.257812 171.539062 -44.082031 172.5 -46 L 172.5 0 L 8.34375 0 C 9.675781 -0.570312 11.113281 -2.394531 12.65625 -5.46875 C 14.1875 -8.53125 15.523438 -12.9375 16.671875 -18.6875 C 17.828125 -24.4375 18.40625 -29.707031 18.40625 -34.5 L 18.40625 -181.125 C 18.40625 -184.1875 18.113281 -188.113281 17.53125 -192.90625 C 16.769531 -197.695312 15.523438 -202.488281 13.796875 -207.28125 C 12.078125 -211.882812 10.257812 -214.664062 8.34375 -215.625 L 162.15625 -215.625 Z M 162.15625 -169.625 " />
            </g>
        </g>
        <g style="fill:#00cdbc;fill-opacity:1;">
            <g transform="translate(1761.227836, 1893.183878)">
                <path style="stroke:none"
                    d="M 162.15625 -169.625 C 161.570312 -170.96875 159.75 -172.40625 156.6875 -173.9375 C 153.625 -175.46875 149.21875 -176.8125 143.46875 -177.96875 C 137.71875 -179.113281 132.445312 -179.6875 127.65625 -179.6875 L 71.59375 -179.6875 L 71.59375 -126.21875 L 114.421875 -126.21875 C 117.492188 -126.21875 121.425781 -126.597656 126.21875 -127.359375 C 131.007812 -127.929688 135.800781 -129.082031 140.59375 -130.8125 C 145.1875 -132.539062 147.960938 -134.363281 148.921875 -136.28125 L 148.921875 -80.21875 C 148.347656 -81.550781 146.53125 -82.988281 143.46875 -84.53125 C 140.394531 -86.0625 135.984375 -87.398438 130.234375 -88.546875 C 124.484375 -89.703125 119.210938 -90.28125 114.421875 -90.28125 L 71.59375 -90.28125 L 71.59375 -35.9375 L 138 -35.9375 C 141.0625 -35.9375 144.988281 -36.320312 149.78125 -37.09375 C 154.570312 -37.664062 159.363281 -38.8125 164.15625 -40.53125 C 168.757812 -42.257812 171.539062 -44.082031 172.5 -46 L 172.5 0 L 8.34375 0 C 9.675781 -0.570312 11.113281 -2.394531 12.65625 -5.46875 C 14.1875 -8.53125 15.523438 -12.9375 16.671875 -18.6875 C 17.828125 -24.4375 18.40625 -29.707031 18.40625 -34.5 L 18.40625 -181.125 C 18.40625 -184.1875 18.113281 -188.113281 17.53125 -192.90625 C 16.769531 -197.695312 15.523438 -202.488281 13.796875 -207.28125 C 12.078125 -211.882812 10.257812 -214.664062 8.34375 -215.625 L 162.15625 -215.625 Z M 162.15625 -169.625 " />
            </g>
        </g>
        <g style="fill:#00cdbc;fill-opacity:1;">
            <g transform="translate(1991.232193, 1893.183878)">
                <path style="stroke:none"
                    d="M 106.375 -215.625 C 118.445312 -215.625 129.660156 -214.472656 140.015625 -212.171875 C 150.359375 -209.867188 159.363281 -206.421875 167.03125 -201.828125 C 174.695312 -197.222656 180.640625 -191.28125 184.859375 -184 C 189.078125 -176.71875 191.1875 -168.378906 191.1875 -158.984375 C 191.1875 -149.785156 188.695312 -141.445312 183.71875 -133.96875 C 178.726562 -126.300781 171.921875 -119.691406 163.296875 -114.140625 C 175.179688 -108.773438 184.765625 -101.488281 192.046875 -92.28125 C 199.140625 -83.082031 202.6875 -72.539062 202.6875 -60.65625 C 202.6875 -48.007812 199.523438 -37.28125 193.203125 -28.46875 C 186.679688 -19.644531 177.191406 -12.742188 164.734375 -7.765625 C 152.085938 -2.585938 136.46875 0 117.875 0 L 8.34375 0 C 9.675781 -0.570312 11.113281 -2.394531 12.65625 -5.46875 C 14.1875 -8.53125 15.523438 -12.9375 16.671875 -18.6875 C 17.828125 -24.4375 18.40625 -29.707031 18.40625 -34.5 L 18.40625 -181.125 C 18.40625 -184.1875 18.113281 -188.113281 17.53125 -192.90625 C 16.769531 -197.695312 15.523438 -202.488281 13.796875 -207.28125 C 12.078125 -211.882812 10.257812 -214.664062 8.34375 -215.625 Z M 71.59375 -35.9375 L 113.28125 -35.9375 C 122.664062 -35.9375 130.90625 -38.523438 138 -43.703125 C 144.894531 -48.878906 148.34375 -55.96875 148.34375 -64.96875 C 148.34375 -73.789062 144.894531 -80.882812 138 -86.25 C 130.90625 -91.425781 122.664062 -94.015625 113.28125 -94.015625 L 71.59375 -94.015625 Z M 71.59375 -129.953125 L 103.78125 -129.953125 C 110.488281 -129.953125 116.625 -131.195312 122.1875 -133.6875 C 127.550781 -135.988281 131.382812 -139.148438 133.6875 -143.171875 C 135.789062 -147.203125 136.84375 -151.035156 136.84375 -154.671875 C 136.84375 -158.503906 135.789062 -162.4375 133.6875 -166.46875 C 131.382812 -170.300781 127.550781 -173.460938 122.1875 -175.953125 C 116.625 -178.441406 110.488281 -179.6875 103.78125 -179.6875 L 71.59375 -179.6875 Z M 71.59375 -129.953125 " />
            </g>
        </g>
        <g clip-rule="nonzero" clip-path="url(#7e81540516)">
            <path style=" stroke:none;fill-rule:nonzero;fill:#000000;fill-opacity:1;"
                d="M 1198.933594 1705.660156 C 1181.210938 1682.332031 1154.09375 1669 1124.554688 1669 C 1095.015625 1669 1067.898438 1682.332031 1050.175781 1705.660156 C 1024.726562 1739.140625 1024.726562 1785.796875 1050.175781 1819.125 L 1124.554688 1916.226562 L 1198.933594 1819.125 C 1224.382812 1785.796875 1224.382812 1739.140625 1198.933594 1705.660156 Z M 1124.554688 1802.914062 C 1101.074219 1802.914062 1081.835938 1783.828125 1081.835938 1760.195312 C 1081.835938 1736.714844 1101.074219 1717.476562 1124.554688 1717.476562 C 1148.035156 1717.476562 1167.273438 1736.566406 1167.273438 1760.195312 C 1167.121094 1783.675781 1148.035156 1802.914062 1124.554688 1802.914062 Z M 1124.554688 1802.914062 " />
        </g>
        <g clip-rule="nonzero" clip-path="url(#62cb19f329)">
            <path style=" stroke:none;fill-rule:evenodd;fill:#000000;fill-opacity:1;"
                d="M 1411.125 644.234375 C 1377.25 645.257812 1341.789062 652.050781 1302.375 665.082031 C 1239.300781 685.925781 1187.210938 716.855469 1142.320312 760.117188 C 1119.5 782.105469 1102.097656 801.640625 1089.546875 819.359375 C 1050.050781 875.109375 1025.472656 937.851562 1015.125 1009.351562 C 1012.277344 1029.019531 1011.761719 1037.382812 1011.761719 1064.101562 C 1011.761719 1111.757812 1014.640625 1140.070312 1022.980469 1174.445312 C 1038.144531 1236.96875 1067.414062 1294.550781 1109.964844 1345.578125 C 1117.679688 1354.832031 1139.410156 1378.25 1143.460938 1381.679688 C 1144.652344 1382.6875 1149 1386.570312 1153.125 1390.316406 C 1191.179688 1424.835938 1234.601562 1451.757812 1281.410156 1469.847656 C 1310.15625 1480.957031 1348.695312 1490.9375 1379.625 1495.285156 C 1407.183594 1499.160156 1466.863281 1499.753906 1494.191406 1496.429688 C 1502.371094 1495.433594 1531.550781 1489.507812 1544.164062 1486.285156 C 1556.429688 1483.148438 1571.679688 1478.132812 1574.882812 1476.1875 C 1576.421875 1475.25 1577.25 1474.152344 1577.246094 1473.046875 C 1577.246094 1472.113281 1575.023438 1465.949219 1572.304688 1459.351562 C 1559.324219 1427.816406 1550.371094 1401.203125 1539.097656 1360.625 L 1532.5625 1337.101562 L 1529.195312 1337.207031 C 1527.34375 1337.265625 1518.921875 1338.535156 1510.476562 1340.027344 C 1487.8125 1344.027344 1476.898438 1345.015625 1450.125 1345.488281 C 1424.136719 1345.949219 1408.125 1345.160156 1393.847656 1342.71875 C 1367.707031 1338.25 1339.777344 1328.855469 1313.683594 1315.753906 C 1235.671875 1276.585938 1179.761719 1202.0625 1167.082031 1120.351562 C 1162.628906 1091.648438 1162.113281 1047.769531 1165.957031 1024.726562 C 1177.242188 957.113281 1210.292969 899.453125 1261.75 857.59375 C 1309.910156 818.417969 1372.28125 796.710938 1436.625 796.734375 C 1506.421875 796.761719 1572.597656 820.519531 1622.625 863.519531 C 1632.433594 871.949219 1649.488281 889.582031 1657.039062 899.101562 C 1684.558594 933.785156 1702.644531 973.765625 1712.171875 1020.976562 C 1715.863281 1039.28125 1716.34375 1044.988281 1716.296875 1070.101562 C 1716.210938 1119.042969 1712.015625 1140.824219 1694.902344 1181.273438 C 1692.066406 1187.964844 1689.75 1193.851562 1689.75 1194.351562 C 1689.75 1195.765625 1696.125 1203.722656 1702.875 1210.726562 C 1712.015625 1220.210938 1727.296875 1239.867188 1733.773438 1250.476562 C 1739.121094 1259.226562 1748.632812 1276.710938 1759.386719 1297.542969 C 1772.664062 1323.261719 1777.488281 1331.585938 1778.953125 1331.304688 C 1781.648438 1330.785156 1800.027344 1304.386719 1814.078125 1280.851562 C 1835.578125 1244.824219 1853.027344 1200.605469 1861.476562 1160.71875 C 1872.84375 1107.046875 1873.238281 1046.796875 1862.597656 989.046875 C 1844.386719 890.207031 1789.269531 798.976562 1709.625 735.839844 C 1655.023438 692.554688 1583.046875 660.765625 1513.125 649.054688 C 1489.914062 645.167969 1447.210938 643.148438 1411.125 644.234375 M 1388.25 1107.726562 C 1339.527344 1109.835938 1333.5 1110.589844 1333.5 1114.558594 C 1333.5 1115.554688 1335.542969 1116.507812 1342.3125 1118.671875 C 1375.242188 1129.195312 1412.265625 1148.417969 1438.5 1168.609375 C 1463.992188 1188.230469 1490.238281 1215.1875 1506.164062 1238.101562 C 1527.832031 1269.28125 1539.90625 1298.675781 1565.925781 1383.601562 C 1583.808594 1441.960938 1597.105469 1472.445312 1619.570312 1506.601562 C 1629.480469 1521.664062 1638.144531 1532.265625 1654.628906 1549.507812 L 1669.125 1564.664062 L 1809.75 1564.332031 C 1887.09375 1564.148438 1952.808594 1563.738281 1955.78125 1563.417969 C 1965.167969 1562.414062 1964.746094 1559.761719 1954.621094 1556.164062 C 1935.183594 1549.257812 1907.570312 1535.699219 1889.25 1524.066406 C 1847.085938 1497.292969 1812.039062 1460.304688 1787.074219 1416.222656 C 1776.804688 1398.097656 1770.707031 1384.683594 1760.472656 1357.726562 C 1753.191406 1338.542969 1745.921875 1321.886719 1736.507812 1302.824219 C 1717.101562 1263.53125 1702.28125 1241.902344 1676.425781 1215.132812 C 1630.117188 1167.1875 1567.152344 1131.667969 1502.527344 1117.03125 C 1488.664062 1113.890625 1481.414062 1112.71875 1465.25 1110.984375 C 1433.707031 1107.609375 1412.074219 1106.691406 1388.25 1107.726562 M 1538.339844 1192.472656 C 1542.210938 1196.042969 1548.511719 1202.203125 1552.351562 1206.160156 C 1564.75 1218.941406 1588.003906 1247.769531 1593.992188 1257.785156 C 1595.292969 1259.957031 1596.929688 1261.917969 1597.628906 1262.140625 C 1599.960938 1262.882812 1619.976562 1255.398438 1619.992188 1253.777344 C 1620.003906 1252.328125 1614.445312 1244.304688 1608.34375 1236.972656 C 1594.597656 1220.460938 1575.101562 1202.128906 1564.421875 1195.675781 C 1555.296875 1190.164062 1549.132812 1188.230469 1534.964844 1186.441406 L 1531.308594 1185.976562 Z M 1636.5 1311.132812 C 1624.648438 1314.640625 1623.472656 1315.265625 1624.089844 1317.722656 C 1624.730469 1320.28125 1653.28125 1390.617188 1655.222656 1394.425781 C 1656.347656 1396.625 1657.25 1397.476562 1658.46875 1397.476562 C 1662.664062 1397.476562 1682.050781 1390.894531 1683.695312 1388.914062 C 1684.335938 1388.144531 1682.351562 1382.929688 1675.21875 1366.628906 C 1654.980469 1320.382812 1649.121094 1308.191406 1647.179688 1308.289062 C 1646.460938 1308.324219 1641.65625 1309.605469 1636.5 1311.132812 M 1703.25 1447.417969 C 1694.863281 1449.527344 1687.601562 1451.996094 1685.710938 1453.378906 C 1683.707031 1454.847656 1684.546875 1456.535156 1692.566406 1467.144531 C 1716.976562 1499.449219 1743.769531 1523.988281 1756.230469 1525.457031 C 1760.699219 1525.980469 1773.003906 1524.558594 1776.460938 1523.113281 C 1777.855469 1522.527344 1779 1521.625 1779 1521.109375 C 1779 1520.589844 1776.898438 1518.292969 1774.328125 1516.007812 C 1756.328125 1499.988281 1734.332031 1475.636719 1721.453125 1457.472656 C 1716.902344 1451.058594 1713.648438 1447.371094 1711.523438 1446.238281 C 1710.835938 1445.871094 1707.515625 1446.34375 1703.25 1447.417969 M 1114.875 1660.417969 C 1092.785156 1663.535156 1073.988281 1672.675781 1059.421875 1687.386719 C 1035.6875 1711.355469 1026.53125 1745.847656 1035.242188 1778.472656 C 1038.695312 1791.410156 1044.316406 1802.054688 1054.875 1815.683594 C 1060.695312 1823.191406 1075.277344 1842.199219 1083.007812 1852.347656 C 1088.101562 1859.035156 1093.214844 1865.703125 1098.351562 1872.355469 C 1102.078125 1877.167969 1109.816406 1887.222656 1115.554688 1894.699219 C 1121.289062 1902.175781 1126.230469 1908.023438 1126.53125 1907.695312 C 1127.027344 1907.15625 1141.335938 1888.546875 1155.75 1869.695312 C 1158.84375 1865.648438 1165.175781 1857.390625 1169.816406 1851.34375 C 1203.808594 1807.082031 1206.058594 1804 1209.699219 1796.703125 C 1213.667969 1788.746094 1216.578125 1780.417969 1218.433594 1771.722656 C 1220.3125 1762.910156 1220.316406 1744.546875 1218.441406 1735.753906 C 1211.441406 1702.949219 1188.898438 1676.464844 1158.757812 1665.644531 C 1148.097656 1661.816406 1141.207031 1660.597656 1128.75 1660.339844 C 1122.355469 1660.207031 1116.113281 1660.242188 1114.875 1660.417969 M 1118.304688 1709.835938 C 1105.632812 1712.203125 1093.460938 1721.425781 1088.003906 1732.789062 C 1084.617188 1739.839844 1083.785156 1743.527344 1083.785156 1751.476562 C 1083.785156 1754.980469 1084.132812 1759.367188 1084.558594 1761.226562 C 1085.902344 1767.085938 1090.324219 1775.199219 1094.828125 1780.074219 C 1100.03125 1785.703125 1104.789062 1788.847656 1112.25 1791.59375 C 1119.867188 1794.398438 1131.113281 1794.621094 1138.5 1792.113281 C 1156.167969 1786.121094 1167.425781 1771.484375 1168.316406 1753.351562 C 1169.65625 1726.136719 1145.148438 1704.8125 1118.304688 1709.835938 M 1942.496094 1971.175781 C 1936.621094 1972.960938 1930.496094 1977.5625 1927.75 1982.246094 C 1920.277344 1994.996094 1924.847656 2010.742188 1937.882812 2017.15625 C 1942.261719 2019.3125 1943.550781 2019.597656 1948.859375 2019.570312 C 1956.4375 2019.527344 1960.53125 2017.796875 1965.984375 2012.324219 C 1978.839844 1999.421875 1973.8125 1977.855469 1956.597656 1972.042969 C 1951.945312 1970.46875 1946.011719 1970.105469 1942.496094 1971.175781 M 1991.625 1971.523438 C 1984.6875 1973.71875 1979.0625 1978.640625 1976.105469 1985.101562 C 1973.472656 1990.855469 1973.636719 2000.101562 1976.480469 2005.886719 C 1978.863281 2010.738281 1983.953125 2015.660156 1989 2017.992188 C 1993.90625 2020.261719 2003.742188 2020.144531 2008.71875 2017.753906 C 2013.683594 2015.375 2018.722656 2010.246094 2021.113281 2005.140625 C 2022.773438 2001.59375 2023.121094 1999.808594 2023.109375 1994.851562 C 2023.097656 1988.632812 2022.003906 1985.472656 2017.964844 1979.992188 C 2012.5 1972.578125 2000.496094 1968.71875 1991.625 1971.523438 M 1444.320312 2063.238281 C 1444.035156 2113.738281 1444.066406 2113.335938 1440.082031 2122.339844 C 1436.945312 2129.429688 1430.578125 2133.855469 1421.210938 2135.457031 C 1417.789062 2136.039062 1380.835938 2136.21875 1294.875 2136.066406 C 1175.183594 2135.851562 1173.320312 2135.828125 1169.867188 2134.347656 C 1161.402344 2130.714844 1156.273438 2125.140625 1153.65625 2116.726562 C 1152.546875 2113.160156 1152.375 2108.984375 1152.375 2085.976562 C 1152.375 2062.960938 1152.546875 2058.789062 1153.65625 2055.210938 C 1155.425781 2049.503906 1158.898438 2044.546875 1163.472656 2041.1875 L 1167.335938 2038.351562 L 1156.269531 2037.476562 C 1138.636719 2036.089844 1124.621094 2032.503906 1108.777344 2025.328125 C 1105.007812 2023.621094 1101.734375 2022.226562 1101.496094 2022.226562 C 1101.257812 2022.226562 1100.957031 2042.726562 1100.824219 2067.789062 L 1100.585938 2113.351562 L 1098.828125 2118.09375 C 1096.621094 2124.0625 1093.34375 2128.414062 1088.71875 2131.527344 C 1082.191406 2135.917969 1083.113281 2135.851562 1030.875 2135.851562 C 983 2135.851562 982.859375 2135.84375 976.5 2134.109375 C 963.414062 2130.539062 954.539062 2124.402344 950.46875 2116.117188 C 948.582031 2112.269531 948.375 2111.078125 948.375 2103.976562 C 948.375 2096.898438 948.578125 2095.71875 950.367188 2092.324219 C 953.003906 2087.328125 957.402344 2082.894531 961.9375 2080.664062 C 965.058594 2079.128906 966.726562 2078.851562 972.78125 2078.851562 C 978.335938 2078.851562 980.390625 2079.144531 981.945312 2080.164062 C 983.046875 2080.882812 984.128906 2081.476562 984.347656 2081.476562 C 984.570312 2081.476562 984.75 2070.328125 984.75 2056.703125 L 984.75 2031.933594 L 979.6875 2032.382812 C 959.140625 2034.214844 941.988281 2042.113281 929.488281 2055.5 C 923.421875 2061.996094 919.082031 2070 916.011719 2080.351562 C 914.21875 2086.398438 914.007812 2088.34375 913.976562 2099.101562 C 913.9375 2111.503906 914.53125 2115.246094 918.035156 2124.789062 C 925.257812 2144.460938 940.984375 2158.863281 962.71875 2165.71875 C 976.609375 2170.101562 978.183594 2170.214844 1028.625 2170.539062 C 1077.078125 2170.851562 1083.492188 2170.574219 1094.625 2167.707031 C 1103.296875 2165.472656 1116.070312 2159.007812 1122.488281 2153.605469 L 1127.847656 2149.089844 L 1129.613281 2150.988281 C 1134.261719 2155.996094 1145.933594 2162.777344 1156.125 2166.402344 C 1167.691406 2170.515625 1161.644531 2170.351562 1301.25 2170.351562 C 1422.390625 2170.351562 1431.042969 2170.265625 1437.1875 2169.011719 C 1464.425781 2163.464844 1478.40625 2154.367188 1486.996094 2136.601562 C 1493.480469 2123.1875 1494.761719 2114.621094 1495.457031 2079.976562 C 1496.070312 2049.457031 1496.34375 2047.394531 1500.554688 2041.15625 C 1502.566406 2038.175781 1507.800781 2033.476562 1509.101562 2033.476562 C 1509.28125 2033.476562 1509.429688 2033.414062 1509.558594 2033.289062 C 1509.683594 2033.167969 1509.746094 2033.015625 1509.75 2032.839844 C 1509.75 2032.492188 1505.785156 2031.992188 1500.9375 2031.730469 C 1484.214844 2030.832031 1468.921875 2027.148438 1454.300781 2020.5 C 1449.585938 2018.355469 1445.472656 2016.492188 1445.15625 2016.363281 C 1444.839844 2016.234375 1444.464844 2037.328125 1444.320312 2063.238281 M 1578.554688 2095.914062 C 1578.308594 2169.054688 1578.261719 2171.242188 1576.769531 2176.351562 C 1574.695312 2183.441406 1572.738281 2187.011719 1568.875 2190.722656 C 1564.851562 2194.59375 1560.816406 2196.710938 1555.480469 2197.75 C 1548.179688 2199.171875 1535.648438 2197.222656 1528.367188 2193.53125 L 1524.75 2191.699219 L 1524.75 2229.117188 L 1528.6875 2229.894531 C 1539.050781 2231.933594 1545.652344 2232.378906 1560.1875 2232.019531 C 1572.308594 2231.71875 1576.644531 2231.320312 1581.667969 2230.046875 C 1594.25 2226.851562 1606.730469 2219.609375 1614.160156 2211.199219 C 1623.800781 2200.28125 1627.679688 2189.859375 1629.414062 2170.242188 L 1629.886719 2164.886719 L 1634.507812 2166.769531 C 1644.445312 2170.824219 1637.332031 2170.671875 1817.734375 2170.699219 C 1928.429688 2170.714844 1987.664062 2170.460938 1992.695312 2169.945312 C 2029.695312 2166.148438 2051.046875 2145.902344 2055.828125 2110.089844 C 2057.453125 2097.945312 2055.113281 2080.101562 2050.542969 2069.773438 C 2047.820312 2063.621094 2040.90625 2054 2035.949219 2049.46875 C 2007.929688 2023.859375 1952.8125 2022.210938 1919.402344 2045.988281 C 1910.359375 2052.425781 1902.066406 2064.871094 1898.894531 2076.757812 C 1896.878906 2084.320312 1896.683594 2098.949219 1898.496094 2106.40625 C 1900.882812 2116.214844 1907.191406 2126.464844 1914.882812 2133.035156 L 1918.652344 2136.25 L 1783.386719 2136.050781 L 1648.125 2135.847656 L 1644.300781 2134.117188 C 1639.613281 2131.996094 1634.820312 2127.230469 1632.835938 2122.722656 C 1630.054688 2116.402344 1629.648438 2110.851562 1629.902344 2082.597656 C 1630.136719 2056.261719 1630.1875 2055.492188 1631.910156 2051.191406 C 1633.640625 2046.875 1637.886719 2041.847656 1642.875 2038.203125 L 1645.125 2036.558594 L 1641 2036.503906 C 1623.9375 2036.277344 1603.734375 2031.621094 1586.8125 2024.015625 C 1582.785156 2022.203125 1579.335938 2020.722656 1579.148438 2020.722656 C 1578.960938 2020.722656 1578.691406 2054.558594 1578.554688 2095.910156 M 1971.722656 2064.167969 C 1964.800781 2065.523438 1956.941406 2071.300781 1953.554688 2077.53125 C 1950.5625 2083.027344 1948.507812 2092.578125 1948.515625 2100.972656 C 1948.527344 2113.574219 1951.632812 2122.308594 1958.414062 2128.8125 C 1963.710938 2133.894531 1968.847656 2135.808594 1977 2135.746094 C 1991.722656 2135.632812 2000.078125 2128.6875 2004.015625 2113.285156 C 2006.773438 2102.503906 2005.488281 2088.023438 2000.992188 2079.210938 C 1995.320312 2068.089844 1983.277344 2061.902344 1971.722656 2064.167969 M 1435.714844 2186.769531 C 1428.476562 2189.128906 1422.964844 2193.722656 1419.621094 2200.183594 C 1418.429688 2202.484375 1417.890625 2205.117188 1417.652344 2209.8125 C 1417.359375 2215.640625 1417.527344 2216.722656 1419.390625 2220.871094 C 1423.289062 2229.558594 1430.652344 2234.535156 1440.375 2235.050781 C 1447.746094 2235.441406 1453.148438 2233.667969 1458.25 2229.179688 C 1462.011719 2225.863281 1466.25 2218.257812 1466.25 2214.808594 C 1466.25 2213.550781 1466.566406 2212.832031 1467 2213.097656 C 1467.414062 2213.355469 1467.753906 2214.472656 1467.757812 2215.582031 C 1467.78125 2221.851562 1476.457031 2231.9375 1483.679688 2234.082031 C 1492.945312 2236.835938 1502.574219 2234.738281 1508.855469 2228.605469 C 1514.425781 2223.164062 1516.128906 2219 1516.109375 2210.847656 C 1516.097656 2205.03125 1515.824219 2203.582031 1514.121094 2200.335938 C 1508.886719 2190.347656 1497.488281 2184.433594 1487.457031 2186.503906 C 1477 2188.660156 1469.964844 2195.621094 1467.605469 2206.136719 L 1466.71875 2210.097656 L 1466.160156 2206.472656 C 1465.453125 2201.859375 1461.53125 2195.296875 1457.480469 2191.957031 C 1451.535156 2187.054688 1441.894531 2184.757812 1435.714844 2186.769531 M 1028 2187.632812 C 1023.9375 2189.125 1018.34375 2193.414062 1015.941406 2196.878906 C 1011.75 2202.929688 1010.523438 2212.671875 1013.058594 2219.800781 C 1014.832031 2224.78125 1020.539062 2230.894531 1025.855469 2233.5 C 1031.449219 2236.242188 1040.148438 2236.433594 1045.664062 2233.933594 C 1058.21875 2228.246094 1064.402344 2212.84375 1058.761719 2201.316406 C 1055.976562 2195.621094 1049.269531 2189.441406 1044.039062 2187.753906 C 1039.3125 2186.226562 1031.984375 2186.171875 1028 2187.632812 " />
        </g>
    </g>
</svg>