<svg width="180" height="180" viewBox="0 0 180 180" fill="none" xmlns="http://www.w3.org/2000/svg">
<rect width="180" height="180" rx="90" fill="#4038FF"/>
<path d="M93.0687 76.5474H87.6021V82.014H93.0687V76.5474Z" fill="white"/>
<path d="M82.1354 65.614H76.6687V71.0807H82.1354V65.614Z" fill="white"/>
<path d="M104.002 65.614H98.5352V71.0807H104.002V65.614Z" fill="white"/>
<path d="M114.935 76.5474H109.469V82.014H114.935V76.5474Z" fill="white"/>
<path d="M158.587 92.838C159.188 88.6013 156.373 78.3513 148.173 68.894C139.508 58.89 122.452 47 90.3354 47C58.1914 47 41.1354 58.89 32.4707 68.894C24.2981 78.3513 21.4554 88.6013 22.0841 92.8653C23.1774 100.601 34.2747 103.307 39.4407 104.127V115.279C39.4407 115.333 39.4681 115.361 39.4681 115.415C39.4954 115.607 39.5501 115.825 39.6047 116.017C39.6594 116.181 39.6867 116.317 39.7414 116.481C39.7687 116.509 39.7687 116.563 39.7961 116.591C40.1514 117.274 49.3627 133.1 90.3354 133.1C131.308 133.1 140.492 117.274 140.875 116.591C140.902 116.563 140.875 116.509 140.902 116.481C140.984 116.345 141.011 116.181 141.039 116.017C141.121 115.825 141.175 115.634 141.175 115.415C141.175 115.361 141.203 115.333 141.203 115.279V104.127C146.396 103.307 157.466 100.601 158.587 92.838ZM60.2687 73.814C60.2687 72.3107 61.4987 71.0807 63.0021 71.0807H71.2021V62.8807C71.2021 61.3773 72.4321 60.1473 73.9354 60.1473H84.8687C86.3721 60.1473 87.6021 61.3773 87.6021 62.8807V71.0807H93.0687V62.8807C93.0687 61.3773 94.2987 60.1473 95.8021 60.1473H106.735C108.239 60.1473 109.469 61.3773 109.469 62.8807V71.0807H117.669C119.172 71.0807 120.402 72.3107 120.402 73.814V84.7473C120.402 86.2507 119.172 87.4807 117.669 87.4807H106.735C105.232 87.4807 104.002 86.2507 104.002 84.7473V76.5473H98.5354V84.7473C98.5354 86.2507 97.3054 87.4807 95.8021 87.4807H84.8687C83.3654 87.4807 82.1354 86.2507 82.1354 84.7473V76.5473H76.6687V84.7473C76.6687 86.2507 75.4387 87.4807 73.9354 87.4807H63.0021C61.4987 87.4807 60.2687 86.2507 60.2687 84.7473V73.814ZM90.3354 127.633C65.4347 127.633 53.4081 121.565 48.1601 117.52C76.1767 115.197 104.467 115.197 132.483 117.52C127.208 121.593 115.209 127.633 90.3354 127.633Z" fill="white"/>
<path d="M71.202 76.5474H65.7354V82.014H71.202V76.5474Z" fill="white"/>
</svg>
